<?xml version="1.0" encoding="utf-8"?>
<!-- Generator: Adobe Illustrator 15.0.2, SVG Export Plug-In . SVG Version: 6.00 Build 0)  -->
<!DOCTYPE svg PUBLIC "-//W3C//DTD SVG 1.1//EN" "http://www.w3.org/Graphics/SVG/1.1/DTD/svg11.dtd">
<svg version="1.1" xmlns="http://www.w3.org/2000/svg" xmlns:xlink="http://www.w3.org/1999/xlink" x="0px" y="0px"
	 width="493.334px" height="456.666px" viewBox="0 0 493.334 456.666" enable-background="new 0 0 493.334 456.666"
	 xml:space="preserve">
<g id="sheep1">
	<g id="body">
		<path fill="#FFFFFF" stroke="#000000" stroke-width="10" stroke-miterlimit="10" d="M-174.072-194.826
			c-33.721-22.959-92.035-14.159-92.035-14.159s-11.504-34.514-52.213-41.593c-39.273-6.83-82.3,27.85-82.3,27.85
			s-51.327-10.151-83.186,27.902s-20.354,61.947-20.354,61.947s-38.054,0.885-53.098,47.788s16.814,73.451,16.814,73.451
			s-7.964,50.443,12.39,83.187s84.956,35.397,84.956,35.397s0.886,47.788,36.283,67.257s99.115-10.619,99.115-10.619
			s51.327,23.732,91.15,17.176s55.752-65.849,55.752-65.849s38.054-13.274,61.062-41.593c23.01-28.318,0-83.186,0-83.186
			s20.453-28.318,10.227-66.372c-10.227-38.053-43.854-61.947-43.854-61.947S-132.479-166.507-174.072-194.826z"/>
		<path fill="#FFFFFF" stroke="#000000" stroke-width="10" stroke-miterlimit="10" d="M396.371,67.377
			c-33.721-22.959-92.035-14.159-92.035-14.159s-11.504-34.514-52.213-41.594c-39.272-6.83-82.3,27.851-82.3,27.851
			s-51.328-10.151-83.186,27.902c-31.859,38.054-20.355,61.946-20.355,61.946s-38.053,0.886-53.098,47.788
			c-15.043,46.902,16.814,73.451,16.814,73.451s-7.963,50.443,12.391,83.187s84.955,35.397,84.955,35.397
			s0.887,47.788,36.283,67.257c35.398,19.469,99.115-10.619,99.115-10.619s51.327,23.732,91.15,17.176s55.752-65.849,55.752-65.849
			s38.054-13.274,61.062-41.593c23.01-28.318,0-83.186,0-83.186s20.453-28.318,10.227-66.372s-43.854-61.946-43.854-61.946
			S437.964,95.696,396.371,67.377z"/>
		<path fill="#F9BFB2" stroke="#000000" stroke-width="8" stroke-miterlimit="10" d="M-153.623-41.052
			c20.846,15.281,39.936,19.597,34.16,36.168c-3.871,11.109-24.953,6.967-33.703,3.717s-8.154-7.276-16.48-19.986
			C-181.564-37.029-167.71-51.377-153.623-41.052z"/>
		<path fill="#F9BFB2" stroke="#000000" stroke-width="8" stroke-miterlimit="10" d="M-259.912-54.118
			c-43.579,5.603-68.623,56.721-41.753,101.805c25.823,43.328,29.442,85.806,77.229,79.611
			c30.817-3.994,56.624-59.017,60.098-121.239C-160.815-57.017-197.965-62.083-259.912-54.118z"/>
		<path fill="#F9BFB2" stroke="#000000" stroke-width="8" stroke-miterlimit="10" d="M-345.913-19.87
			c-20.846,15.28-27.17,22.521-24.355,33.405s16.229,7.895,31.271,3.47c4.724-1.389,9.208-3.117,13.258-5.438
			c7.322-9.733,12.696-13.95,18.283-26.324C-303.575-34.228-331.826-30.196-345.913-19.87z"/>
		<path fill="#FFFFFF" stroke="#000000" stroke-width="8" stroke-miterlimit="10" d="M-125.895-21.696
			c-6.584-20.971-20.397-37.811-39.876-41.351c-9.734-36.283-36.237-41.366-36.237-41.366s-22.773-10.422-34.278-8.652
			s-22.458,8.113-22.458,8.113s-15.475-3.208-39.133,3.92c-24.677,7.436-25.911,52.028-25.911,52.028s-23.347,0.116-42.478,43.257
			c27.27-14.484,45.694-14.055,45.694-14.055s10.146,14.902,23.2-0.814c11.766-14.167,20.185-15.104,31.265-14.167
			s12.514,7.122,28.443,7.122s16.832-9.507,26.318-11.557c9.486-2.051,27.694,23.529,34.549,10.982
			C-164.107-51.463-125.895-21.696-125.895-21.696z"/>
		<path fill="#F9BFB2" stroke="#000000" stroke-width="8" stroke-miterlimit="10" d="M283.372-192.743
			c20.846,15.281,39.936,19.597,34.16,36.168c-3.871,11.109-24.953,6.967-33.703,3.717s-8.154-7.276-16.48-19.986
			C255.431-188.721,269.285-203.069,283.372-192.743z"/>
		<path fill="#F9BFB2" stroke="#000000" stroke-width="8" stroke-miterlimit="10" d="M177.083-205.81
			c-43.579,5.603-68.623,56.721-41.753,101.805c25.823,43.328,29.442,85.806,77.229,79.611
			c30.817-3.994,56.624-59.017,60.098-121.239C276.18-208.708,239.03-213.774,177.083-205.81z"/>
		<path fill="#F9BFB2" stroke="#000000" stroke-width="8" stroke-miterlimit="10" d="M91.083-171.562
			c-20.846,15.28-27.17,22.521-24.355,33.405s16.229,7.895,31.271,3.47c4.724-1.389,9.208-3.117,13.258-5.438
			c7.322-9.733,12.696-13.95,18.283-26.324C133.42-185.919,105.169-181.888,91.083-171.562z"/>
		<path fill="#FFFFFF" stroke="#000000" stroke-width="8" stroke-miterlimit="10" d="M311.101-173.388
			c-6.584-20.971-20.397-37.811-39.876-41.351c-9.734-36.283-36.237-41.366-36.237-41.366s-22.773-10.422-34.278-8.652
			s-22.458,8.113-22.458,8.113s-15.475-3.208-39.133,3.92c-24.677,7.436-25.911,52.028-25.911,52.028s-23.347,0.116-42.478,43.257
			c27.27-14.484,45.693-14.055,45.693-14.055s10.146,14.902,23.2-0.814c11.766-14.167,20.185-15.104,31.265-14.167
			s12.514,7.122,28.443,7.122s16.832-9.507,26.318-11.557c9.486-2.051,27.694,23.529,34.549,10.982
			C272.888-203.155,311.101-173.388,311.101-173.388z"/>
		<circle cx="-253.425" cy="20.952" r="5"/>
		<circle cx="-208.337" cy="21.096" r="5"/>
		<circle cx="545.291" cy="-209.71" r="5"/>
		<circle cx="590.379" cy="-209.565" r="5"/>
		<path fill="#FFFFFF" stroke="#000000" stroke-width="10" stroke-miterlimit="10" d="M-316.586,88.726"/>
	</g>
</g>
<g id="grass_tufts">
	<path fill="#B8D663" d="M-34.934,277.334C-24.109,225.198-70.105,86.36-63.342,48.911S-33.275-80.526-33.275-80.526
		s-42.24,70.343-55.768,110.927c-13.527,40.582,8.115,139.335,10.822,170.447c2.705,31.113-5.412,76.485-5.412,76.485"/>
	<path fill="#B8D663" d="M-93.455,277.334c1.707-26.433,7.904-64.311-2.635-85.956c-10.539-21.644-33.537-71.695-26.773-98.751
		c6.766-27.055-9.21,43.29-1.223,67.64c7.988,24.348,30.479,96.153,15.852,117.067"/>
	<path fill="#B8D663" d="M-372.219,277.303c-1.721-30.846-7.975-75.049,2.658-100.309c10.636-25.257,33.84-83.666,27.016-115.239
		c-6.825-31.572,9.293,50.519,1.234,78.934c-8.06,28.413-30.754,112.208-15.994,136.614"/>
	<path fill="#B8D663" d="M-118.805,277.334c1.354-27.785-28.705-137.359-25.851-150.887c2.854-13.528,3.935-60.378,18.274-77.536
		s-38.975,21.27-28.551,82.545c10.425,61.277,34.504,136.3,28.551,141.089c-5.951,4.789-18.274,4.789-18.274,4.789"/>
	<path fill="#B8D663" d="M-154.932,277.334c2.309-35.902,49.654-134.104,52.361-145.878c2.705-11.773,0-33.052,0-33.052
		s-20.59,71.332-42.085,117.325c-21.495,45.992-21.495,61.604-21.495,61.604"/>
	<path fill="#B8D663" d="M-355.047,277.334c2.309-35.902,38.655-134.104,41.36-145.878c2.706-11.773,0-33.052,0-33.052
		s-14.588,71.332-36.084,117.325c-21.494,45.992-16.494,61.604-16.494,61.604"/>
	<path fill="#B8D663" d="M-172.914,277.334c0-38.608,18.363-65.663,16.622-81.896c-1.742-16.232-22.033-104.164-16.622-114.985
		c5.41-10.82,17.982-31.541,17.982-31.541s-23.394,14.688-24.747,49.493c-1.353,34.807,13.528,63.259,13.528,83.528
		c0,20.269-10.997,95.401-13.615,95.401"/>
	<path fill="#B8D663" d="M-214.498,277.334c-4.41-31.844-28.76-72.426-23.35-104.893c5.412-32.467,11.285-45.994,11.285-45.994
		s-19.402,26.006-20.754,36.676c-1.353,10.671,16.408,105.365,16.408,105.365l-0.036,8.846"/>
	<path fill="#B8D663" d="M-247.39,277.334c-1.279-21.021-18.866-54.841-20.219-69.721s10.109-44.49,10.109-44.49
		s-8.979,8.009-10.22,18.81c-1.242,10.801-5.523,44.619,0,62.205c5.521,17.584,8.786,33.196,8.786,33.196"/>
	<path fill="#B8D663" d="M-370.899,277.333c-1.279-21.021-18.866-54.841-20.219-69.721s10.109-44.49,10.109-44.49
		s-8.98,8.009-10.221,18.81c-1.241,10.801-5.523,44.619,0,62.205c5.522,17.584,8.787,33.196,8.787,33.196"/>
	<path fill="#B8D663" d="M-305.484,277.334c-12.176-31.844,0-73.048,10.822-75.443c10.821-2.394,20.197-14.021,20.197-14.021
		s-12.538,4.403-26.926,10.801c-17.554,7.806-17.622,21.116-17.622,40.055c0,18.939,4.616,38.608,4.616,38.608"/>
</g>
</svg>
